HIERARCHY
ROOT Hips
{
	OFFSET 0.000000 121.760803 0.000000
	CHANNELS 6 Xposition Yposition Zposition Xrotation Yrotation Zrotation 
	JOINT Spine
	{
		OFFSET 0.072000 7.257294 -0.789700
		CHANNELS 3 Xrotation Yrotation Zrotation
		JOINT Spine1
		{
			OFFSET 0.000000 12.508769 -0.658067
			CHANNELS 3 Xrotation Yrotation Zrotation
			JOINT Spine1_split
			{
				OFFSET 0.000000 12.508769 -0.658067
				CHANNELS 3 Xrotation Yrotation Zrotation
				JOINT Spine2
				{
					OFFSET 0.000000 12.508769 -0.658067
					CHANNELS 3 Xrotation Yrotation Zrotation
					JOINT Neck
					{
						OFFSET 0.000000 14.033295 7.520400
						CHANNELS 3 Xrotation Yrotation Zrotation
						JOINT Head
						{
							OFFSET 0.000000 8.198502 5.703100
							CHANNELS 3 Xrotation Yrotation Zrotation
							JOINT HeadTop_End
							{
								OFFSET 0.000000 17.760803 13.332701
								CHANNELS 3 Xrotation Yrotation Zrotation
								End Site
								{
									OFFSET 0.000000 0.000000 0.000000
								}
							}
						}
					}
					JOINT LeftShoulder
					{
						OFFSET 6.292450 5.785301 -0.669000
						CHANNELS 3 Xrotation Yrotation Zrotation
						JOINT LeftShoulder_split
						{
							OFFSET 6.292450 5.785301 -0.669000
							CHANNELS 3 Xrotation Yrotation Zrotation
							JOINT LeftArm
							{
								OFFSET 13.907140 -6.093903 1.965100
								CHANNELS 3 Xrotation Yrotation Zrotation
								JOINT LeftForeArm
								{
									OFFSET 34.140198 0.000000 0.000000
									CHANNELS 3 Xrotation Yrotation Zrotation
									JOINT LeftHand
									{
										OFFSET 40.960209 0.000000 0.000000
										CHANNELS 3 Xrotation Yrotation Zrotation
										JOINT LeftHandThumb1
										{
											OFFSET 10.006996 -7.170425 9.573125
											CHANNELS 3 Xrotation Yrotation Zrotation
											JOINT LeftHandThumb2
											{
												OFFSET 1.835007 -1.059448 1.059443
												CHANNELS 3 Xrotation Yrotation Zrotation
												JOINT LeftHandThumb3
												{
													OFFSET 2.112267 -1.219513 1.219518
													CHANNELS 3 Xrotation Yrotation Zrotation
													JOINT LeftHandThumb4
													{
														OFFSET 4.843811 -2.796570 2.796576
														CHANNELS 3 Xrotation Yrotation Zrotation
														End Site
														{
															OFFSET 0.000000 0.000000 0.000000
														}
													}
												}
											}
										}
										JOINT LeftHandIndex1
										{
											OFFSET 18.389847 -0.922348 4.596882
											CHANNELS 3 Xrotation Yrotation Zrotation
											JOINT LeftHandIndex2
											{
												OFFSET 4.711273 0.000000 0.000000
												CHANNELS 3 Xrotation Yrotation Zrotation
												JOINT LeftHandIndex3
												{
													OFFSET 2.886131 0.000000 0.000000
													CHANNELS 3 Xrotation Yrotation Zrotation
													JOINT LeftHandIndex4
													{
														OFFSET 6.145912 0.000000 0.000000
														CHANNELS 3 Xrotation Yrotation Zrotation
														End Site
														{
															OFFSET 0.000000 0.000000 0.000000
														}
													}
												}
											}
										}
										JOINT LeftHandMiddle1
										{
											OFFSET 18.013008 0.000000 0.000000
											CHANNELS 3 Xrotation Yrotation Zrotation
											JOINT LeftHandMiddle2
											{
												OFFSET 4.946693 0.000000 0.000000
												CHANNELS 3 Xrotation Yrotation Zrotation
												JOINT LeftHandMiddle3
												{
													OFFSET 3.342232 0.000000 0.000000
													CHANNELS 3 Xrotation Yrotation Zrotation
													JOINT LeftHandMiddle4
													{
														OFFSET 4.461754 0.000000 0.000000
														CHANNELS 3 Xrotation Yrotation Zrotation
														End Site
														{
															OFFSET 0.000000 0.000000 0.000000
														}
													}
												}
											}
										}
										JOINT LeftHandRing1
										{
											OFFSET 15.849892 -0.102921 -4.126150
											CHANNELS 3 Xrotation Yrotation Zrotation
											JOINT LeftHandRing2
											{
												OFFSET 3.527054 0.000000 0.000000
												CHANNELS 3 Xrotation Yrotation Zrotation
												JOINT LeftHandRing3
												{
													OFFSET 2.961098 0.000000 0.000000
													CHANNELS 3 Xrotation Yrotation Zrotation
													JOINT LeftHandRing4
													{
														OFFSET 4.927200 0.000000 0.000000
														CHANNELS 3 Xrotation Yrotation Zrotation
														End Site
														{
															OFFSET 0.000000 0.000000 0.000000
														}
													}
												}
											}
										}
										JOINT LeftHandPinky1
										{
											OFFSET 12.791824 -0.832031 -6.799156
											CHANNELS 3 Xrotation Yrotation Zrotation
											JOINT LeftHandPinky2
											{
												OFFSET 3.327133 0.000000 0.000000
												CHANNELS 3 Xrotation Yrotation Zrotation
												JOINT LeftHandPinky3
												{
													OFFSET 3.014900 0.000000 0.000000
													CHANNELS 3 Xrotation Yrotation Zrotation
													JOINT LeftHandPinky4
													{
														OFFSET 5.847786 0.000000 0.000000
														CHANNELS 3 Xrotation Yrotation Zrotation
														End Site
														{
															OFFSET 0.000000 0.000000 0.000000
														}
													}
												}
											}
										}
									}
								}
							}
						}
					}
					JOINT RightShoulder
					{
						OFFSET -6.292450 5.785301 -0.669000
						CHANNELS 3 Xrotation Yrotation Zrotation
						JOINT RightShoulder_split
						{
							OFFSET -6.292450 5.785301 -0.669000
							CHANNELS 3 Xrotation Yrotation Zrotation
							JOINT RightArm
							{
								OFFSET -13.907140 -6.093903 1.965100
								CHANNELS 3 Xrotation Yrotation Zrotation
								JOINT RightForeArm
								{
									OFFSET -34.140198 0.000000 0.000000
									CHANNELS 3 Xrotation Yrotation Zrotation
									JOINT RightHand
									{
										OFFSET -40.960209 0.000000 0.000000
										CHANNELS 3 Xrotation Yrotation Zrotation
										JOINT RightHandThumb1
										{
											OFFSET -10.007050 -7.170456 9.573117
											CHANNELS 3 Xrotation Yrotation Zrotation
											JOINT RightHandThumb2
											{
												OFFSET -1.835007 -1.059448 1.059443
												CHANNELS 3 Xrotation Yrotation Zrotation
												JOINT RightHandThumb3
												{
													OFFSET -2.112267 -1.219513 1.219518
													CHANNELS 3 Xrotation Yrotation Zrotation
													JOINT RightHandThumb4
													{
														OFFSET -4.843834 -2.796585 2.796590
														CHANNELS 3 Xrotation Yrotation Zrotation
														End Site
														{
															OFFSET 0.000000 0.000000 0.000000
														}
													}
												}
											}
										}
										JOINT RightHandIndex1
										{
											OFFSET -18.389870 -0.922424 4.596786
											CHANNELS 3 Xrotation Yrotation Zrotation
											JOINT RightHandIndex2
											{
												OFFSET -4.711273 0.000000 0.000000
												CHANNELS 3 Xrotation Yrotation Zrotation
												JOINT RightHandIndex3
												{
													OFFSET -2.886131 0.000000 0.000000
													CHANNELS 3 Xrotation Yrotation Zrotation
													JOINT RightHandIndex4
													{
														OFFSET -6.145920 0.000000 0.000000
														CHANNELS 3 Xrotation Yrotation Zrotation
														End Site
														{
															OFFSET 0.000000 0.000000 0.000000
														}
													}
												}
											}
										}
										JOINT RightHandMiddle1
										{
											OFFSET -18.013008 0.000000 0.000000
											CHANNELS 3 Xrotation Yrotation Zrotation
											JOINT RightHandMiddle2
											{
												OFFSET -4.946693 0.000000 0.000000
												CHANNELS 3 Xrotation Yrotation Zrotation
												JOINT RightHandMiddle3
												{
													OFFSET -3.342232 0.000000 0.000000
													CHANNELS 3 Xrotation Yrotation Zrotation
													JOINT RightHandMiddle4
													{
														OFFSET -4.461754 0.000000 0.000000
														CHANNELS 3 Xrotation Yrotation Zrotation
														End Site
														{
															OFFSET 0.000000 0.000000 0.000000
														}
													}
												}
											}
										}
										JOINT RightHandRing1
										{
											OFFSET -15.849876 -0.102936 -4.126237
											CHANNELS 3 Xrotation Yrotation Zrotation
											JOINT RightHandRing2
											{
												OFFSET -3.527054 0.000000 0.000000
												CHANNELS 3 Xrotation Yrotation Zrotation
												JOINT RightHandRing3
												{
													OFFSET -2.961098 0.000000 0.000000
													CHANNELS 3 Xrotation Yrotation Zrotation
													JOINT RightHandRing4
													{
														OFFSET -4.927200 0.000000 0.000000
														CHANNELS 3 Xrotation Yrotation Zrotation
														End Site
														{
															OFFSET 0.000000 0.000000 0.000000
														}
													}
												}
											}
										}
										JOINT RightHandPinky1
										{
											OFFSET -12.791786 -0.832077 -6.799222
											CHANNELS 3 Xrotation Yrotation Zrotation
											JOINT RightHandPinky2
											{
												OFFSET -3.327133 0.000000 0.000000
												CHANNELS 3 Xrotation Yrotation Zrotation
												JOINT RightHandPinky3
												{
													OFFSET -3.014900 0.000000 0.000000
													CHANNELS 3 Xrotation Yrotation Zrotation
													JOINT RightHandPinky4
													{
														OFFSET -5.847786 0.000000 0.000000
														CHANNELS 3 Xrotation Yrotation Zrotation
														End Site
														{
															OFFSET 0.000000 0.000000 0.000000
														}
													}
												}
											}
										}
									}
								}
							}
						}
					}
				}
			}
		}
	}
	JOINT LeftUpLeg
	{
		OFFSET 13.026900 -6.336304 -1.092800
		CHANNELS 3 Xrotation Yrotation Zrotation
		JOINT LeftLeg
		{
			OFFSET 0.524474 -46.096886 9.782700
			CHANNELS 3 Xrotation Yrotation Zrotation
			JOINT LeftFoot
			{
				OFFSET -0.524474 -53.427422 -12.948200
				CHANNELS 3 Xrotation Yrotation Zrotation
				JOINT LeftToeBase
				{
					OFFSET 0.192200 -14.009700 16.364100
					CHANNELS 3 Xrotation Yrotation Zrotation
					JOINT LeftToe_End
					{
						OFFSET -1.784700 -0.561700 9.474800
						CHANNELS 3 Xrotation Yrotation Zrotation
						End Site
						{
							OFFSET 0.000000 0.000000 0.000000
						}
					}
				}
			}
		}
	}
	JOINT RightUpLeg
	{
		OFFSET -12.883000 -6.336304 -1.092800
		CHANNELS 3 Xrotation Yrotation Zrotation
		JOINT RightLeg
		{
			OFFSET -0.524587 -46.096825 9.782800
			CHANNELS 3 Xrotation Yrotation Zrotation
			JOINT RightFoot
			{
				OFFSET 0.524587 -53.427383 -12.948300
				CHANNELS 3 Xrotation Yrotation Zrotation
				JOINT RightToeBase
				{
					OFFSET -0.192200 -14.009700 16.364100
					CHANNELS 3 Xrotation Yrotation Zrotation
					JOINT RightToe_End
					{
						OFFSET 1.784700 -0.561700 9.474800
						CHANNELS 3 Xrotation Yrotation Zrotation
						End Site
						{
							OFFSET 0.000000 0.000000 0.000000
						}
					}
				}
			}
		}
	}
}
MOTION
Frames: 4
Frame Time: 0.016667
13.489561 91.292091 -6.036810 44.852411 -82.205315 45.359945 1.312660 4.600717 3.306005 1.685965 3.692172 0.960060 0.000000 0.000000 0.000000 1.613181 3.756763 0.980632 -3.532984 9.176819 -1.132675 -3.451490 43.959767 -1.786096 0.000000 -0.000001 0.000000 0.705581 8.677176 -8.120511 0.000000 0.000000 0.000000 -7.703521 12.546979 -67.827788 0.000025 -117.532447 0.000028 -2.759513 -37.106177 22.103080 -9.674878 0.269256 1.575501 21.035335 31.264716 -3.204882 -14.510747 -15.900096 5.153368 0.000000 0.000001 -0.000000 -2.849084 3.303444 -72.216328 3.992239 5.548917 -71.446709 1.747150 4.174033 -45.411022 -0.000001 -0.000000 -0.000001 -2.178483 6.191014 -74.467818 5.106537 5.803672 -82.676906 3.445826 5.335398 -65.690143 -0.000001 -0.000000 0.000001 -2.999876 7.957869 -88.252888 5.714706 5.849485 -88.662337 2.469280 4.777547 -54.644536 -0.000002 0.000003 0.000003 0.216265 8.542517 -93.244288 6.059371 5.847379 -92.043807 5.040805 5.794883 -82.026399 0.000001 -0.000000 0.000002 0.563284 13.344018 9.556960 0.000000 0.000000 0.000000 -10.871294 35.898621 46.529421 -0.000030 101.265184 0.000054 18.782675 12.790210 -36.872404 -6.752282 7.209117 -18.581270 21.136541 -37.182532 16.258963 -4.776902 10.706917 -21.836996 -0.000000 -0.000001 -0.000000 -3.537833 10.196856 38.911437 4.634939 -4.657094 89.726173 1.152120 -3.068490 41.151459 -0.000001 -0.000000 0.000001 -5.052434 -1.676069 58.106345 3.618993 -4.540232 77.105760 1.323052 -3.253421 44.250327 -0.000000 -0.000002 -0.000001 -3.873848 -2.931544 61.582666 4.483714 -4.653936 87.863028 1.062195 -2.962579 39.442287 0.000001 -0.000001 -0.000004 -1.856265 -4.598465 67.393941 2.939838 -4.329615 68.339758 1.336455 -3.267145 44.486559 0.000000 -0.000002 -0.000001 -29.642676 -11.359276 24.813833 48.391634 -7.836758 9.818088 -23.277920 -1.331357 -23.076219 -13.959441 0.000006 0.000002 -0.000002 -0.000000 -0.000000 -20.957204 8.000418 -27.718048 46.030100 5.364993 -9.562316 -32.246412 2.281697 25.421168 -8.845070 0.000012 0.000002 0.000000 0.000000 0.000001 
13.072926 91.850967 -5.995071 34.962820 -81.625378 35.338863 1.310829 4.436565 3.503855 1.674576 3.524501 1.048238 0.000000 0.000000 0.000000 1.609795 3.584450 1.064621 -2.945500 8.978277 -1.211499 -3.441613 42.960415 -1.394686 -0.000000 0.000000 -0.000000 0.654793 7.533281 -7.402836 0.000000 0.000000 0.000000 -5.403856 12.550879 -68.677743 0.000036 -118.249726 0.000047 -3.995470 -36.802405 21.789499 -9.674878 0.269254 1.575499 21.019298 31.210314 -3.199426 -14.525669 -15.951249 5.140692 0.000000 0.000001 -0.000000 -2.853325 3.302264 -72.160894 3.986871 5.547107 -71.391132 1.743118 4.170082 -45.355673 -0.000002 -0.000001 -0.000000 -2.182408 6.183209 -74.413162 5.100820 5.802923 -82.620523 3.440665 5.333073 -65.634655 0.000002 -0.000003 -0.000001 -3.005565 7.949393 -88.198363 5.708903 5.849345 -88.605421 2.464661 4.774300 -54.589157 0.000000 0.000000 -0.000002 0.210128 8.537065 -93.188956 6.053646 5.847589 -91.987547 5.035206 5.794098 -81.970808 0.000000 0.000002 -0.000001 0.654557 13.133338 8.324374 0.000000 0.000000 0.000000 -11.309126 35.091357 48.626873 -0.000042 101.896307 0.000040 19.025794 12.710613 -36.950026 -6.752282 7.209120 -18.581272 21.103553 -37.132112 16.238829 -4.776790 10.760586 -21.828583 -0.000000 0.000001 -0.000000 -3.540190 10.199002 38.856495 4.630434 -4.657074 89.670623 1.149160 -3.065107 41.096149 0.000001 0.000000 -0.000001 -5.052154 -1.666600 58.052455 3.614525 -4.539174 77.048973 1.319901 -3.250191 44.195063 0.000000 0.000002 -0.000002 -3.874701 -2.923216 61.528366 4.479134 -4.653766 87.806617 1.059346 -2.959112 39.387041 0.000000 -0.000000 -0.000001 -1.858665 -4.592086 67.339040 2.935599 -4.327941 68.283792 1.333323 -3.263940 44.431272 0.000001 -0.000003 0.000000 -28.989362 -11.108369 24.852241 47.273437 -7.792121 9.811549 -23.525716 -2.497120 -22.904572 -13.628661 0.000013 0.000014 -0.000001 -0.000001 0.000000 -19.649688 7.160429 -27.637565 45.775125 5.561394 -9.609136 -30.402989 2.240080 25.828558 -10.408186 -0.000001 0.000011 -0.000001 0.000002 -0.000001 
12.413239 93.693024 -5.852391 24.503491 -80.075895 24.828349 1.187541 4.427048 3.716482 1.555126 3.451239 1.016177 0.000000 0.000000 0.000000 1.491296 3.510716 1.023371 -2.505828 8.602202 -1.279735 -2.965685 40.944682 -0.795753 -0.000000 -0.000000 -0.000000 0.633905 7.205947 -6.991779 0.000000 0.000000 0.000000 -4.027027 9.964027 -67.472065 -0.000037 -118.092987 -0.000056 -4.207153 -36.031707 21.229111 -9.674879 0.269252 1.575501 20.999833 31.142459 -3.192792 -14.544253 -16.014926 5.124835 0.000000 0.000001 0.000001 -2.859078 3.300602 -72.091923 3.980197 5.544873 -71.321983 1.738109 4.165144 -45.286797 -0.000002 0.000001 -0.000001 -2.187306 6.173458 -74.345093 5.093735 5.802015 -82.550288 3.434251 5.330181 -65.565574 0.000002 0.000000 0.000000 -3.012975 7.938789 -88.130484 5.701683 5.849170 -88.534551 2.458929 4.770220 -54.520226 0.000001 0.000000 0.000003 0.202184 8.530274 -93.120074 6.046517 5.847810 -91.917544 5.028198 5.793130 -81.901570 0.000002 -0.000002 -0.000000 0.703595 12.600983 7.607050 0.000000 0.000000 0.000000 -10.772633 34.147551 49.737670 -0.000070 103.261040 0.000068 18.710998 12.211387 -37.120644 -6.752282 7.209114 -18.581270 21.063277 -37.069069 16.214058 -4.776251 10.827357 -21.818109 -0.000001 0.000001 -0.000001 -3.543113 10.201691 38.788084 4.624841 -4.657044 89.601529 1.145487 -3.060883 41.027293 -0.000001 -0.000001 0.000000 -5.052088 -1.654617 57.985424 3.608925 -4.537909 76.978288 1.316009 -3.246212 44.126290 -0.000000 -0.000000 0.000001 -3.875773 -2.912844 61.460774 4.473435 -4.653565 87.736375 1.055819 -2.954803 39.318237 0.000002 0.000003 -0.000001 -1.861654 -4.584154 67.270731 2.930363 -4.325873 68.214137 1.329418 -3.259924 44.362417 0.000001 0.000002 0.000003 -28.813857 -10.039265 24.657287 44.760572 -7.874062 9.814521 -21.350396 -5.960521 -23.170136 -13.760239 -0.000030 -0.000008 -0.000001 -0.000000 -0.000000 -17.530425 5.282096 -27.337547 43.988450 6.024257 -9.801634 -26.413255 2.167436 26.146999 -13.678647 0.000024 0.000006 -0.000000 0.000000 0.000000 
11.658491 96.418488 -5.788580 16.535135 -77.688771 16.904812 0.985125 4.506721 3.843327 1.364926 3.425533 0.933034 0.000000 0.000000 0.000000 1.299355 3.484986 0.928857 -2.094440 8.124945 -1.381039 -2.236920 38.340775 -0.194032 -0.000000 0.000000 0.000000 0.623446 7.184075 -6.717692 0.000000 0.000000 0.000000 -3.255296 6.222742 -65.186274 -0.000002 -117.506370 -0.000019 -3.863575 -34.828559 20.605547 -9.674875 0.269256 1.575500 20.977002 31.061720 -3.185084 -14.566365 -16.090683 5.105786 -0.000001 0.000001 0.000001 -2.866251 3.298531 -72.009892 3.972243 5.542185 -71.239699 1.732167 4.159261 -45.204839 -0.000000 0.000003 0.000002 -2.193114 6.161881 -74.264141 5.085297 5.800897 -82.466768 3.426606 5.326724 -65.483428 -0.000003 -0.000000 -0.000001 -3.022113 7.926190 -88.049744 5.693089 5.848936 -88.450239 2.452121 4.765380 -54.438220 0.000000 0.000000 0.000001 0.192406 8.522201 -93.038112 6.038014 5.848098 -91.834257 5.019905 5.791942 -81.819219 -0.000004 0.000000 0.000000 0.732046 11.989991 7.098539 0.000000 0.000000 0.000000 -9.801467 33.018924 50.192707 0.000200 104.960029 -0.000184 18.245365 11.392867 -37.011286 -6.752282 7.209114 -18.581275 21.015906 -36.993899 16.184910 -4.775322 10.906791 -21.805557 0.000000 0.000000 -0.000000 -3.546596 10.204933 38.706737 4.618152 -4.657005 89.519328 1.141114 -3.055858 40.945376 0.000000 -0.000001 0.000000 -5.052273 -1.640198 57.905702 3.602256 -4.536372 76.894201 1.311377 -3.241422 44.044454 -0.000000 0.000002 0.000001 -3.877027 -2.900500 61.380410 4.466670 -4.653277 87.652842 1.051572 -2.949648 39.236431 0.000001 0.000002 -0.000003 -1.865161 -4.574705 67.189479 2.924110 -4.323356 68.131308 1.324775 -3.255169 44.280513 -0.000001 0.000002 0.000002 -28.803557 -8.360769 24.166966 41.057445 -8.009672 9.871479 -17.362974 -10.713611 -23.171618 -14.683522 0.000006 0.000006 -0.000000 -0.000000 -0.000000 -15.358859 3.031400 -26.873441 41.593325 6.548414 -9.853427 -20.129647 2.292291 26.180890 -17.632610 -0.000024 -0.000000 0.000000 -0.000000 -0.000000 
